<svg width="113" height="20" viewBox="0 0 113 20" fill="none" xmlns="http://www.w3.org/2000/svg">
<path d="M5.08563 0.300907V14.7045C5.08563 15.2891 5.18307 15.7054 5.37795 15.9535C5.57284 16.2015 5.90059 16.3255 6.36122 16.3255C6.62697 16.3255 6.84843 16.3078 7.02559 16.2724C7.20276 16.2369 7.41535 16.1838 7.66339 16.1129L7.37106 18.8235C7.05217 19.0184 6.63583 19.1779 6.12205 19.3019C5.60827 19.4259 5.10335 19.4879 4.60728 19.4879C3.18996 19.4879 2.1624 19.1602 1.52461 18.5046C0.886811 17.8491 0.567914 16.7773 0.567914 15.2891V0.300907H5.08563ZM15.7992 19.4879C14.3287 19.4879 13.0532 19.2133 11.9724 18.6641C10.9095 18.1149 10.0856 17.3265 9.50099 16.2989C8.91635 15.2714 8.62402 14.0312 8.62402 12.5785C8.62402 11.1257 8.91635 9.88555 9.50099 8.85799C10.0856 7.83043 10.9006 7.04205 11.9459 6.49284C13.0089 5.94362 14.2224 5.66902 15.5866 5.66902C16.9862 5.66902 18.1732 5.94362 19.1476 6.49284C20.1398 7.02433 20.8927 7.76843 21.4065 8.72512C21.9203 9.6641 22.1772 10.7448 22.1772 11.9672C22.1772 12.2861 22.1683 12.605 22.1506 12.9239C22.1329 13.2428 22.1063 13.5086 22.0709 13.7212H11.5473V11.3029H20.0778L17.9252 12.1267C17.9252 11.0637 17.7303 10.2487 17.3406 9.68181C16.9685 9.11488 16.3839 8.83142 15.5866 8.83142C15.0197 8.83142 14.5325 8.96429 14.125 9.23004C13.7352 9.49579 13.4341 9.91213 13.2215 10.4791C13.0266 11.046 12.9291 11.7724 12.9291 12.6582C12.9291 13.5263 13.0443 14.235 13.2746 14.7842C13.5049 15.3157 13.8327 15.7054 14.2579 15.9535C14.6831 16.1838 15.1969 16.2989 15.7992 16.2989C16.4725 16.2989 17.0039 16.1661 17.3937 15.9003C17.8012 15.6346 18.1024 15.2625 18.2973 14.7842L21.9114 15.98C21.6634 16.7419 21.2293 17.3885 20.6093 17.92C20.0069 18.4338 19.2805 18.8235 18.4301 19.0893C17.5975 19.355 16.7205 19.4879 15.7992 19.4879ZM32.1188 10.798C32.1188 10.1779 31.9417 9.69067 31.5874 9.33634C31.2507 8.96429 30.7901 8.77827 30.2055 8.77827C29.6208 8.77827 29.1159 8.92886 28.6907 9.23004C28.2832 9.51351 27.9998 10.0273 27.8403 10.7714L24.0135 9.86784C24.2616 8.59225 24.9171 7.57354 25.9801 6.81173C27.0431 6.04992 28.5401 5.66902 30.4712 5.66902C31.7645 5.66902 32.8629 5.8639 33.7665 6.25366C34.6877 6.62571 35.3876 7.19264 35.8659 7.95445C36.362 8.69854 36.61 9.6198 36.61 10.7182V15.5814C36.61 16.2724 36.92 16.6178 37.5401 16.6178C37.859 16.6178 38.1159 16.5824 38.3108 16.5115L38.045 19.0893C37.5135 19.3373 36.8669 19.4613 36.1051 19.4613C35.4141 19.4613 34.8029 19.355 34.2714 19.1424C33.7399 18.9121 33.3236 18.5755 33.0224 18.1326C32.7212 17.672 32.5706 17.0962 32.5706 16.4052V16.2458L33.0755 16.0598C33.0755 16.8216 32.8452 17.4594 32.3846 17.9732C31.9417 18.4869 31.357 18.8678 30.6307 19.1159C29.922 19.3639 29.1779 19.4879 28.3984 19.4879C27.4948 19.4879 26.7064 19.3462 26.0332 19.0627C25.36 18.7793 24.8374 18.3718 24.4653 17.8403C24.111 17.2911 23.9338 16.6178 23.9338 15.8206C23.9338 14.8639 24.2173 14.0755 24.7842 13.4554C25.3688 12.8176 26.2813 12.3747 27.5214 12.1267L32.544 11.0903L32.5175 13.482L29.9663 14.0135C29.4348 14.1198 29.0362 14.2793 28.7704 14.4919C28.5224 14.6867 28.3984 14.9879 28.3984 15.3954C28.3984 15.7852 28.5401 16.0775 28.8236 16.2724C29.107 16.4672 29.4437 16.5647 29.8334 16.5647C30.1346 16.5647 30.4181 16.5204 30.6838 16.4318C30.9673 16.3432 31.2153 16.2104 31.4279 16.0332C31.6405 15.8383 31.8088 15.5991 31.9328 15.3157C32.0568 15.0322 32.1188 14.6956 32.1188 14.3058V10.798ZM40.094 19.2222V5.93477H44.0802L44.2662 8.80484C44.6028 7.81272 45.0989 7.04205 45.7544 6.49284C46.4277 5.94362 47.278 5.66902 48.3056 5.66902C48.6422 5.66902 48.9257 5.69559 49.156 5.74874C49.404 5.80189 49.5989 5.87276 49.7406 5.96134L49.2889 9.68181C49.1117 9.61095 48.8814 9.5578 48.5979 9.52236C48.3322 9.46921 48.0044 9.44264 47.6147 9.44264C47.0832 9.44264 46.5871 9.5578 46.1265 9.78811C45.6658 10.0184 45.2938 10.3639 45.0103 10.8245C44.7446 11.2674 44.6117 11.8344 44.6117 12.5253V19.2222H40.094ZM51.5129 19.2222V5.93477H55.5522L55.7914 10.5056L55.2865 10.0007C55.4636 9.04402 55.7737 8.24677 56.2166 7.60898C56.6772 6.97118 57.2442 6.49284 57.9174 6.17394C58.6083 5.83732 59.379 5.66902 60.2294 5.66902C61.1506 5.66902 61.9479 5.84618 62.6211 6.20051C63.3121 6.55484 63.8524 7.07748 64.2422 7.76843C64.6319 8.45937 64.8268 9.32748 64.8268 10.3728V19.2222H60.3091V11.5686C60.3091 10.6474 60.1319 10.0096 59.7776 9.65524C59.4233 9.30091 58.9715 9.12374 58.4223 9.12374C57.9971 9.12374 57.5985 9.23004 57.2264 9.44264C56.8544 9.63752 56.5621 9.95642 56.3495 10.3993C56.1369 10.8422 56.0306 11.4357 56.0306 12.1798V19.2222H51.5129Z" fill="#2B2B40"/>
<path d="M70.2512 4.39343C69.3299 4.39343 68.6567 4.22512 68.2315 3.88851C67.824 3.53417 67.6203 2.98496 67.6203 2.24087C67.6203 1.47906 67.824 0.929843 68.2315 0.593229C68.6567 0.238899 69.3299 0.0617336 70.2512 0.0617336C71.1547 0.0617336 71.8191 0.238899 72.2443 0.593229C72.6695 0.929843 72.8821 1.47906 72.8821 2.24087C72.8821 2.98496 72.6695 3.53417 72.2443 3.88851C71.8191 4.22512 71.1547 4.39343 70.2512 4.39343ZM72.5101 5.93477V19.2222H67.9923V5.93477H72.5101ZM80.6158 19.4879C79.5174 19.4879 78.5518 19.2222 77.7191 18.6907C76.9042 18.1415 76.2664 17.3531 75.8058 16.3255C75.3628 15.298 75.1414 14.0667 75.1414 12.6316C75.1414 11.1434 75.3717 9.88555 75.8323 8.85799C76.3107 7.83043 76.9662 7.04205 77.7989 6.49284C78.6493 5.94362 79.6237 5.66902 80.7221 5.66902C81.9268 5.66902 82.8924 6.04106 83.6187 6.78516C84.3628 7.51154 84.8412 8.44166 85.0538 9.57551L84.6286 10.1336V0.300907H89.1463V19.2222H85.1069L84.8146 14.7045L85.3461 15.1031C85.2398 15.9889 84.9652 16.7596 84.5223 17.4151C84.0971 18.0706 83.5479 18.5844 82.8747 18.9564C82.2191 19.3108 81.4662 19.4879 80.6158 19.4879ZM82.1837 16.1661C82.6975 16.1661 83.1315 16.0332 83.4859 15.7674C83.8579 15.484 84.1414 15.0676 84.3363 14.5184C84.5311 13.9692 84.6286 13.296 84.6286 12.4987C84.6286 11.7546 84.5311 11.1257 84.3363 10.6119C84.1591 10.0804 83.8845 9.68181 83.5124 9.41606C83.1581 9.1326 82.7241 8.99087 82.2103 8.99087C81.4308 8.99087 80.8107 9.28319 80.35 9.86784C79.9071 10.4348 79.6857 11.3383 79.6857 12.5785C79.6857 13.8186 79.9071 14.731 80.35 15.3157C80.793 15.8826 81.4042 16.1661 82.1837 16.1661ZM98.8714 19.4879C97.401 19.4879 96.1254 19.2133 95.0447 18.6641C93.9817 18.1149 93.1579 17.3265 92.5732 16.2989C91.9886 15.2714 91.6962 14.0312 91.6962 12.5785C91.6962 11.1257 91.9886 9.88555 92.5732 8.85799C93.1579 7.83043 93.9728 7.04205 95.0181 6.49284C96.0811 5.94362 97.2947 5.66902 98.6588 5.66902C100.058 5.66902 101.245 5.94362 102.22 6.49284C103.212 7.02433 103.965 7.76843 104.479 8.72512C104.993 9.6641 105.249 10.7448 105.249 11.9672C105.249 12.2861 105.241 12.605 105.223 12.9239C105.205 13.2428 105.179 13.5086 105.143 13.7212H94.6195V11.3029H103.15L100.997 12.1267C100.997 11.0637 100.803 10.2487 100.413 9.68181C100.041 9.11488 99.4561 8.83142 98.6588 8.83142C98.0919 8.83142 97.6047 8.96429 97.1972 9.23004C96.8075 9.49579 96.5063 9.91213 96.2937 10.4791C96.0988 11.046 96.0014 11.7724 96.0014 12.6582C96.0014 13.5263 96.1165 14.235 96.3468 14.7842C96.5771 15.3157 96.9049 15.7054 97.3301 15.9535C97.7553 16.1838 98.2691 16.2989 98.8714 16.2989C99.5447 16.2989 100.076 16.1661 100.466 15.9003C100.873 15.6346 101.175 15.2625 101.369 14.7842L104.984 15.98C104.736 16.7419 104.302 17.3885 103.681 17.92C103.079 18.4338 102.353 18.8235 101.502 19.0893C100.67 19.355 99.7927 19.4879 98.8714 19.4879ZM110.009 14.6513C110.842 14.6513 111.488 14.8639 111.949 15.2891C112.427 15.7143 112.666 16.3078 112.666 17.0696C112.666 17.8137 112.427 18.3983 111.949 18.8235C111.488 19.2487 110.842 19.4613 110.009 19.4613C109.194 19.4613 108.547 19.2487 108.069 18.8235C107.591 18.3983 107.351 17.8137 107.351 17.0696C107.351 16.3078 107.591 15.7143 108.069 15.2891C108.547 14.8639 109.194 14.6513 110.009 14.6513Z" fill="#06D9E2"/>
</svg>
