<svg width="42" height="41" viewBox="0 0 42 41" fill="none" xmlns="http://www.w3.org/2000/svg">
<g clip-path="url(#clip0_112_518)">
<path d="M28.3444 40.5176H38.8892C40.3061 40.5176 41.459 39.3648 41.459 37.9479V27.4023C41.459 25.9854 40.3061 24.8325 38.8892 24.8325H28.3444C26.9275 24.8325 25.7746 25.9854 25.7746 27.4023V37.9479C25.7746 39.3648 26.9275 40.5176 28.3444 40.5176ZM38.3354 37.3933H28.899V27.9577H38.3346V37.3933H38.3354Z" fill="#06D9E2"/>
<path d="M4.00803 18.6798H19.6221V3.06657C19.6221 1.3755 20.9976 0 22.6879 0H38.4261C40.1172 0 41.4927 1.3755 41.4927 3.06657V18.804C41.4927 20.4951 40.1172 21.8698 38.4261 21.8698H22.8121V37.4846C22.8121 39.1757 21.4373 40.5512 19.7463 40.5512H4.00803C2.31696 40.5512 0.941456 39.1757 0.941456 37.4846V21.7456C0.941456 20.0553 2.31696 18.6798 4.00803 18.6798ZM38.3683 18.7454V3.12437H22.7464V18.7454H38.3683ZM4.06583 37.4268H19.6877V21.8042H4.06583V37.4268Z" fill="#06D9E2"/>
<path d="M3.54463 15.7179H14.0894C15.5063 15.7179 16.6592 14.565 16.6592 13.1481V2.60337C16.6592 1.18646 15.5063 0.0335693 14.0894 0.0335693H3.54463C2.12773 0.0335693 0.974834 1.18646 0.974834 2.60337V13.1473C0.974834 14.5642 2.12773 15.7171 3.54463 15.7171V15.7179ZM13.5348 12.5935H4.0992V3.15794H13.5348V12.5935Z" fill="#06D9E2"/>
</g>
<defs>
<clipPath id="clip0_112_518">
<rect width="40.5512" height="40.5512" fill="white" transform="matrix(-1 0 0 1 41.4927 0)"/>
</clipPath>
</defs>
</svg>
