<svg width="113" height="21" viewBox="0 0 113 21" fill="none" xmlns="http://www.w3.org/2000/svg">
<path d="M5.08563 1.07874V15.4823C5.08563 16.0669 5.18307 16.4833 5.37795 16.7313C5.57284 16.9793 5.90059 17.1033 6.36122 17.1033C6.62697 17.1033 6.84843 17.0856 7.02559 17.0502C7.20276 17.0148 7.41535 16.9616 7.66339 16.8907L7.37106 19.6014C7.05217 19.7963 6.63583 19.9557 6.12205 20.0797C5.60827 20.2037 5.10335 20.2657 4.60728 20.2657C3.18996 20.2657 2.1624 19.938 1.52461 19.2825C0.886811 18.627 0.567914 17.5551 0.567914 16.0669V1.07874H5.08563ZM15.7992 20.2657C14.3287 20.2657 13.0532 19.9911 11.9724 19.4419C10.9095 18.8927 10.0856 18.1043 9.50099 17.0768C8.91635 16.0492 8.62402 14.8091 8.62402 13.3563C8.62402 11.9035 8.91635 10.6634 9.50099 9.63583C10.0856 8.60827 10.9006 7.81988 11.9459 7.27067C13.0089 6.72145 14.2224 6.44685 15.5866 6.44685C16.9862 6.44685 18.1732 6.72145 19.1476 7.27067C20.1398 7.80216 20.8927 8.54626 21.4065 9.50295C21.9203 10.4419 22.1772 11.5226 22.1772 12.7451C22.1772 13.064 22.1683 13.3829 22.1506 13.7018C22.1329 14.0207 22.1063 14.2864 22.0709 14.499H11.5473V12.0807H20.0778L17.9252 12.9045C17.9252 11.8415 17.7303 11.0266 17.3406 10.4596C16.9685 9.89272 16.3839 9.60925 15.5866 9.60925C15.0197 9.60925 14.5325 9.74212 14.125 10.0079C13.7352 10.2736 13.4341 10.69 13.2215 11.2569C13.0266 11.8238 12.9291 12.5502 12.9291 13.436C12.9291 14.3041 13.0443 15.0128 13.2746 15.562C13.5049 16.0935 13.8327 16.4833 14.2579 16.7313C14.6831 16.9616 15.1969 17.0768 15.7992 17.0768C16.4725 17.0768 17.0039 16.9439 17.3937 16.6781C17.8012 16.4124 18.1024 16.0404 18.2973 15.562L21.9114 16.7579C21.6634 17.5197 21.2293 18.1663 20.6093 18.6978C20.0069 19.2116 19.2805 19.6014 18.4301 19.8671C17.5975 20.1329 16.7205 20.2657 15.7992 20.2657ZM32.1188 11.5758C32.1188 10.9557 31.9417 10.4685 31.5874 10.1142C31.2507 9.74213 30.7901 9.5561 30.2055 9.5561C29.6208 9.5561 29.1159 9.70669 28.6907 10.0079C28.2832 10.2913 27.9998 10.8051 27.8403 11.5492L24.0135 10.6457C24.2616 9.37008 24.9171 8.35138 25.9801 7.58957C27.0431 6.82775 28.5401 6.44685 30.4712 6.44685C31.7645 6.44685 32.8629 6.64173 33.7665 7.03149C34.6877 7.40354 35.3876 7.97047 35.8659 8.73228C36.362 9.47638 36.61 10.3976 36.61 11.4961V16.3593C36.61 17.0502 36.92 17.3957 37.5401 17.3957C37.859 17.3957 38.1159 17.3602 38.3108 17.2894L38.045 19.8671C37.5135 20.1152 36.8669 20.2392 36.1051 20.2392C35.4141 20.2392 34.8029 20.1329 34.2714 19.9203C33.7399 19.69 33.3236 19.3533 33.0224 18.9104C32.7212 18.4498 32.5706 17.874 32.5706 17.1831V17.0236L33.0755 16.8376C33.0755 17.5994 32.8452 18.2372 32.3846 18.751C31.9417 19.2648 31.357 19.6457 30.6307 19.8937C29.922 20.1417 29.1779 20.2657 28.3984 20.2657C27.4948 20.2657 26.7064 20.124 26.0332 19.8406C25.36 19.5571 24.8374 19.1496 24.4653 18.6181C24.111 18.0689 23.9338 17.3957 23.9338 16.5984C23.9338 15.6417 24.2173 14.8533 24.7842 14.2333C25.3688 13.5955 26.2813 13.1526 27.5214 12.9045L32.544 11.8681L32.5175 14.2598L29.9663 14.7913C29.4348 14.8976 29.0362 15.0571 28.7704 15.2697C28.5224 15.4646 28.3984 15.7657 28.3984 16.1732C28.3984 16.563 28.5401 16.8553 28.8236 17.0502C29.107 17.2451 29.4437 17.3425 29.8334 17.3425C30.1346 17.3425 30.4181 17.2982 30.6838 17.2096C30.9673 17.1211 31.2153 16.9882 31.4279 16.811C31.6405 16.6161 31.8088 16.377 31.9328 16.0935C32.0568 15.81 32.1188 15.4734 32.1188 15.0837V11.5758ZM40.094 20V6.7126H44.0802L44.2662 9.58268C44.6028 8.59055 45.0989 7.81988 45.7544 7.27067C46.4277 6.72145 47.278 6.44685 48.3056 6.44685C48.6422 6.44685 48.9257 6.47342 49.156 6.52657C49.404 6.57972 49.5989 6.65059 49.7406 6.73917L49.2889 10.4596C49.1117 10.3888 48.8814 10.3356 48.5979 10.3002C48.3322 10.247 48.0044 10.2205 47.6147 10.2205C47.0832 10.2205 46.5871 10.3356 46.1265 10.5659C45.6658 10.7963 45.2938 11.1417 45.0103 11.6024C44.7446 12.0453 44.6117 12.6122 44.6117 13.3031V20H40.094ZM51.5129 20V6.7126H55.5522L55.7914 11.2835L55.2865 10.7785C55.4636 9.82185 55.7737 9.02461 56.2166 8.38681C56.6772 7.74901 57.2442 7.27067 57.9174 6.95177C58.6083 6.61516 59.379 6.44685 60.2294 6.44685C61.1506 6.44685 61.9479 6.62401 62.6211 6.97835C63.3121 7.33268 63.8524 7.85531 64.2422 8.54626C64.6319 9.2372 64.8268 10.1053 64.8268 11.1506V20H60.3091V12.3465C60.3091 11.4252 60.1319 10.7874 59.7776 10.4331C59.4233 10.0787 58.9715 9.90157 58.4223 9.90157C57.9971 9.90157 57.5985 10.0079 57.2264 10.2205C56.8544 10.4154 56.5621 10.7343 56.3495 11.1772C56.1369 11.6201 56.0306 12.2136 56.0306 12.9577V20H51.5129Z" fill="#EEF3F9"/>
<path d="M70.2512 5.17126C69.3299 5.17126 68.6567 5.00295 68.2315 4.66634C67.824 4.31201 67.6203 3.76279 67.6203 3.0187C67.6203 2.25689 67.824 1.70768 68.2315 1.37106C68.6567 1.01673 69.3299 0.839566 70.2512 0.839566C71.1547 0.839566 71.8191 1.01673 72.2443 1.37106C72.6695 1.70768 72.8821 2.25689 72.8821 3.0187C72.8821 3.76279 72.6695 4.31201 72.2443 4.66634C71.8191 5.00295 71.1547 5.17126 70.2512 5.17126ZM72.5101 6.7126V20H67.9923V6.7126H72.5101ZM80.6158 20.2657C79.5174 20.2657 78.5518 20 77.7191 19.4685C76.9042 18.9193 76.2664 18.1309 75.8058 17.1033C75.3628 16.0758 75.1414 14.8445 75.1414 13.4094C75.1414 11.9213 75.3717 10.6634 75.8323 9.63583C76.3107 8.60827 76.9662 7.81988 77.7989 7.27067C78.6493 6.72145 79.6237 6.44685 80.7221 6.44685C81.9268 6.44685 82.8924 6.8189 83.6187 7.56299C84.3628 8.28937 84.8412 9.21949 85.0538 10.3533L84.6286 10.9114V1.07874H89.1463V20H85.1069L84.8146 15.4823L85.3461 15.8809C85.2398 16.7667 84.9652 17.5374 84.5223 18.1929C84.0971 18.8484 83.5479 19.3622 82.8747 19.7343C82.2191 20.0886 81.4662 20.2657 80.6158 20.2657ZM82.1837 16.9439C82.6975 16.9439 83.1315 16.811 83.4859 16.5453C83.8579 16.2618 84.1414 15.8455 84.3363 15.2963C84.5311 14.747 84.6286 14.0738 84.6286 13.2766C84.6286 12.5325 84.5311 11.9035 84.3363 11.3898C84.1591 10.8583 83.8845 10.4596 83.5124 10.1939C83.1581 9.91043 82.7241 9.7687 82.2103 9.7687C81.4308 9.7687 80.8107 10.061 80.35 10.6457C79.9071 11.2126 79.6857 12.1161 79.6857 13.3563C79.6857 14.5965 79.9071 15.5089 80.35 16.0935C80.793 16.6604 81.4042 16.9439 82.1837 16.9439ZM98.8714 20.2657C97.401 20.2657 96.1254 19.9911 95.0447 19.4419C93.9817 18.8927 93.1579 18.1043 92.5732 17.0768C91.9886 16.0492 91.6962 14.8091 91.6962 13.3563C91.6962 11.9035 91.9886 10.6634 92.5732 9.63583C93.1579 8.60827 93.9728 7.81988 95.0181 7.27067C96.0811 6.72145 97.2947 6.44685 98.6588 6.44685C100.058 6.44685 101.245 6.72145 102.22 7.27067C103.212 7.80216 103.965 8.54626 104.479 9.50295C104.993 10.4419 105.249 11.5226 105.249 12.7451C105.249 13.064 105.241 13.3829 105.223 13.7018C105.205 14.0207 105.179 14.2864 105.143 14.499H94.6195V12.0807H103.15L100.997 12.9045C100.997 11.8415 100.803 11.0266 100.413 10.4596C100.041 9.89272 99.4561 9.60925 98.6588 9.60925C98.0919 9.60925 97.6047 9.74212 97.1972 10.0079C96.8075 10.2736 96.5063 10.69 96.2937 11.2569C96.0988 11.8238 96.0014 12.5502 96.0014 13.436C96.0014 14.3041 96.1165 15.0128 96.3468 15.562C96.5771 16.0935 96.9049 16.4833 97.3301 16.7313C97.7553 16.9616 98.2691 17.0768 98.8714 17.0768C99.5447 17.0768 100.076 16.9439 100.466 16.6781C100.873 16.4124 101.175 16.0404 101.369 15.562L104.984 16.7579C104.736 17.5197 104.302 18.1663 103.681 18.6978C103.079 19.2116 102.353 19.6014 101.502 19.8671C100.67 20.1329 99.7927 20.2657 98.8714 20.2657ZM110.009 15.4291C110.842 15.4291 111.488 15.6417 111.949 16.0669C112.427 16.4921 112.666 17.0856 112.666 17.8474C112.666 18.5915 112.427 19.1762 111.949 19.6014C111.488 20.0266 110.842 20.2392 110.009 20.2392C109.194 20.2392 108.547 20.0266 108.069 19.6014C107.591 19.1762 107.351 18.5915 107.351 17.8474C107.351 17.0856 107.591 16.4921 108.069 16.0669C108.547 15.6417 109.194 15.4291 110.009 15.4291Z" fill="#06D9E2"/>
</svg>
